<svg xmlns="http://www.w3.org/2000/svg" viewBox="0 0 32 32">
    <g data-name="Layer 2">
        <rect width="10" height="1.5" x="6" y="25.14" rx=".75" ry=".75"/>
        <rect width="5" height="1.5" x="6" y="21.64" rx=".75" ry=".75"/>
        <path d="M30.08 3.85L28.26 2A2.16 2.16 0 0 0 25.2 2L23.29 3.87l5 4.92 1.88-1.88a2 2 0 0 0 .59-1.54A2.26 2.26 0 0 0 30.08 3.85zM21.78 5.38l-7.85 7.85a3 3 0 0 0-.75 1.26l-.81 2.69a2 2 0 0 0 .53 2 2.07 2.07 0 0 0 1.46.62 2 2 0 0 0 .56-.08l2.69-.81a3 3 0 0 0 1.26-.75l7.88-7.88z"/>
        <path d="M23.2,30.64H4.8a3.55,3.55,0,0,1-3.55-3.55V8.69A3.55,3.55,0,0,1,4.8,5.14H15.25a.75.75,0,0,1,.75.75h0a.75.75,0,0,1-.75.75H4.8a2,2,0,0,0-2,2v18.4a2,2,0,0,0,2,2H23.2a2,2,0,0,0,2-2V16.64a.75.75,0,0,1,.75-.75h0a.75.75,0,0,1,.75.75V27.09A3.55,3.55,0,0,1,23.2,30.64Z"/>
    </g>
</svg>